<?xml version="1.0" encoding="utf-8"?>
<!-- Generator: Adobe Illustrator 21.0.0, SVG Export Plug-In . SVG Version: 6.00 Build 0)  -->
<svg version="1.1" id="圖層_1" xmlns="http://www.w3.org/2000/svg" xmlns:xlink="http://www.w3.org/1999/xlink" x="0px" y="0px"
	 viewBox="0 0 318.5 191.1" style="enable-background:new 0 0 318.5 191.1;" xml:space="preserve">
<style type="text/css">
	.st0{fill:#040000;}
</style>
<g>
	<path class="st0" d="M74.1,100.9c0.3,0.5,0.8,0.7,1.3,0.7h78.9c0.5,0,1.1-0.3,1.3-0.7l0.8-1.2c0.3-0.5,0.3-1,0.1-1.5l-28.2-56.4
		c-0.3-0.5-0.8-0.9-1.4-0.9h-1.5c-0.6,0-1.1,0.3-1.4,0.9L114.9,60l-9.1-18.2c-0.3-0.5-0.8-0.9-1.4-0.9h-1.5c-0.6,0-1.1,0.3-1.4,0.9
		L73.2,98.1c-0.2,0.5-0.2,1.1,0.1,1.5L74.1,100.9z M133.3,96.8l-15.7-31.4l8.6-17.1l24.3,48.5H133.3z M79.3,96.8l24.3-48.5
		l24.3,48.5H79.3z"/>
	<path class="st0" d="M242.4,41.6c-0.3-0.5-0.8-0.7-1.3-0.7h-78.9c-0.5,0-1,0.3-1.3,0.7l-0.8,1.2c-0.3,0.5-0.3,1-0.1,1.5l11.3,22.5
		c0.3,0.5,0.8,0.9,1.4,0.9h1.5c0.6,0,1.1-0.3,1.4-0.9l2.5-5l21.4,38.9c0.3,0.5,0.8,0.8,1.4,0.8h1.5c0.6,0,1.1-0.3,1.4-0.8l21.4-38.9
		l2.5,5c0.3,0.5,0.8,0.9,1.4,0.9h1.5c0.6,0,1.1-0.3,1.4-0.9l11.3-22.5c0.2-0.5,0.2-1.1-0.1-1.5L242.4,41.6z M180.8,45.7l-7.4,14.7
		l-7.4-14.7H180.8z M217,45.7l5.5,10.9l-20.9,38l-20.9-38l5.5-10.9H217z M237.2,45.7l-7.4,14.7l-7.4-14.7H237.2z"/>
</g>
<g>
	<g>
		<path d="M44.7,126.5h3.6l-10.2,25.3h-0.8l-8.2-20.5l-8.3,20.5H20L9.8,126.5h3.6l6.9,17.4l7-17.4h3.4l7,17.4L44.7,126.5z"/>
		<path d="M38.1,152.3h-0.8c-0.2,0-0.4-0.1-0.5-0.3l-7.8-19.4L21.2,152c-0.1,0.2-0.3,0.3-0.5,0.3H20c-0.2,0-0.4-0.1-0.5-0.3
			L9.4,126.6c-0.1-0.2,0-0.3,0-0.5c0.1-0.1,0.2-0.2,0.4-0.2h3.6c0.2,0,0.4,0.1,0.5,0.3l6.5,16.2l6.5-16.2c0.1-0.2,0.3-0.3,0.5-0.3
			h3.4c0.2,0,0.4,0.1,0.5,0.3l6.6,16.2l6.4-16.2c0.1-0.2,0.3-0.3,0.5-0.3h3.6c0.2,0,0.3,0.1,0.4,0.2c0.1,0.1,0.1,0.3,0,0.5L38.6,152
			C38.5,152.1,38.4,152.3,38.1,152.3z M37.7,151.3h0.1l9.8-24.3h-2.5L38.3,144c-0.1,0.2-0.2,0.3-0.5,0.3c-0.2,0-0.4-0.1-0.5-0.3
			L30.5,127h-2.7L20.9,144c-0.1,0.2-0.3,0.3-0.5,0.3h0c-0.2,0-0.4-0.1-0.5-0.3L13.1,127h-2.6l9.8,24.3h0.1l8.2-20.2
			c0.1-0.2,0.3-0.3,0.5-0.3c0.2,0,0.4,0.1,0.5,0.3L37.7,151.3z"/>
	</g>
	<g>
		<path d="M67.6,126.1c3.9,0,7.1,1.2,9.7,3.7c2.6,2.5,3.9,5.6,3.9,9.3s-1.3,6.8-3.9,9.2c-2.6,2.4-5.9,3.7-9.9,3.7
			c-3.8,0-7-1.2-9.5-3.7c-2.5-2.4-3.8-5.5-3.8-9.2c0-3.8,1.3-6.9,3.8-9.3C60.5,127.3,63.7,126.1,67.6,126.1z M67.7,129.5
			c-2.9,0-5.3,0.9-7.1,2.7c-1.9,1.8-2.8,4.1-2.8,6.9c0,2.7,0.9,5,2.8,6.8c1.9,1.8,4.2,2.7,7,2.7c2.8,0,5.2-0.9,7-2.8
			c1.9-1.8,2.8-4.1,2.8-6.9c0-2.7-0.9-4.9-2.8-6.7C72.8,130.4,70.5,129.5,67.7,129.5z"/>
		<path d="M67.4,152.5c-3.9,0-7.2-1.3-9.8-3.8c-2.6-2.5-3.9-5.7-3.9-9.5c0-3.9,1.3-7.2,4-9.7c2.6-2.5,6-3.8,10-3.8
			c4,0,7.4,1.3,10.1,3.8c2.7,2.6,4,5.8,4,9.6c0,3.8-1.4,7.1-4.1,9.6C74.9,151.2,71.5,152.5,67.4,152.5z M67.6,126.6
			c-3.7,0-6.9,1.2-9.3,3.6c-2.4,2.4-3.7,5.4-3.7,9c0,3.5,1.2,6.5,3.6,8.8c2.4,2.3,5.5,3.5,9.1,3.5c3.8,0,7-1.2,9.6-3.5
			c2.5-2.3,3.8-5.3,3.8-8.9c0-3.6-1.3-6.6-3.7-8.9C74.5,127.8,71.3,126.6,67.6,126.6z M67.6,149.1c-2.9,0-5.4-1-7.3-2.8
			c-2-1.9-2.9-4.3-2.9-7.1c0-2.9,1-5.4,2.9-7.3c1.9-1.9,4.5-2.8,7.5-2.8c2.9,0,5.3,1,7.3,2.9c2,1.9,3,4.3,3,7.1c0,2.9-1,5.3-3,7.2
			C73,148.2,70.5,149.1,67.6,149.1z M67.7,130c-2.7,0-5,0.9-6.8,2.6c-1.7,1.7-2.6,3.9-2.6,6.6c0,2.6,0.9,4.7,2.6,6.4
			c1.8,1.7,4,2.6,6.6,2.6c2.7,0,4.9-0.9,6.7-2.6c1.8-1.7,2.7-3.9,2.7-6.5c0-2.5-0.9-4.7-2.7-6.4C72.5,130.9,70.3,130,67.7,130z"/>
	</g>
	<g>
		<path d="M86.6,126.4h21.1v3.2h-8.8v22h-3.6v-22h-8.6V126.4z"/>
		<path d="M98.9,152.2h-3.6c-0.3,0-0.5-0.2-0.5-0.5v-21.5h-8.1c-0.3,0-0.5-0.2-0.5-0.5v-3.2c0-0.3,0.2-0.5,0.5-0.5h21.1
			c0.3,0,0.5,0.2,0.5,0.5v3.2c0,0.3-0.2,0.5-0.5,0.5h-8.3v21.5C99.4,151.9,99.2,152.2,98.9,152.2z M95.8,151.2h2.6v-21.5
			c0-0.3,0.2-0.5,0.5-0.5h8.3v-2.2H87.1v2.2h8.1c0.3,0,0.5,0.2,0.5,0.5V151.2z"/>
	</g>
	<g>
		<path d="M121,126.3h2.5l11.3,25.4h-3.7l-3.4-7.5H117l-3.2,7.5h-3.7L121,126.3z M126.3,141l-4.1-9.1l-3.8,9.1H126.3z"/>
		<path d="M134.8,152.2h-3.7c-0.2,0-0.4-0.1-0.5-0.3l-3.2-7.2h-10.1l-3,7.2c-0.1,0.2-0.3,0.3-0.5,0.3h-3.7c-0.2,0-0.3-0.1-0.4-0.2
			c-0.1-0.1-0.1-0.3,0-0.5l10.8-25.4c0.1-0.2,0.3-0.3,0.5-0.3h2.5c0.2,0,0.4,0.1,0.5,0.3l11.3,25.4c0.1,0.2,0.1,0.3,0,0.5
			C135.2,152.1,135,152.2,134.8,152.2z M131.5,151.2h2.6l-10.9-24.4h-1.9l-10.4,24.4h2.6l3-7.2c0.1-0.2,0.3-0.3,0.5-0.3h10.8
			c0.2,0,0.4,0.1,0.5,0.3L131.5,151.2z M126.3,141.5h-7.8c-0.2,0-0.3-0.1-0.4-0.2c-0.1-0.1-0.1-0.3,0-0.5l3.8-9.1
			c0.1-0.2,0.3-0.3,0.5-0.3c0.2,0,0.4,0.1,0.5,0.3l4.1,9.1c0.1,0.2,0.1,0.3,0,0.5C126.6,141.4,126.5,141.5,126.3,141.5z
			 M119.2,140.5h6.3l-3.3-7.4L119.2,140.5z"/>
	</g>
	<g>
		<path d="M159,151.6v-25.2h8.5c3.4,0,6.1,0.5,8.1,1.5c2,1,3.6,2.5,4.8,4.5c1.2,2,1.8,4.2,1.8,6.5c0,1.7-0.3,3.3-1,4.8
			c-0.6,1.5-1.6,2.9-2.8,4.1c-1.2,1.2-2.7,2.1-4.3,2.7c-1,0.4-1.8,0.6-2.6,0.7c-0.8,0.1-2.3,0.2-4.5,0.2H159z M167.1,129.7h-4.5
			v18.8h4.6c1.8,0,3.2-0.1,4.2-0.4c1-0.2,1.8-0.6,2.5-0.9c0.7-0.4,1.3-0.8,1.8-1.4c1.8-1.8,2.7-4.1,2.7-6.8c0-2.7-0.9-4.9-2.7-6.6
			c-0.7-0.6-1.4-1.2-2.3-1.6c-0.9-0.4-1.7-0.7-2.5-0.8C170.1,129.7,168.8,129.7,167.1,129.7z"/>
		<path d="M167,152.1h-8c-0.3,0-0.5-0.2-0.5-0.5v-25.2c0-0.3,0.2-0.5,0.5-0.5h8.5c3.5,0,6.3,0.5,8.4,1.6c2.1,1.1,3.7,2.7,5,4.7
			c1.2,2.1,1.8,4.3,1.8,6.8c0,1.7-0.3,3.4-1,5c-0.7,1.6-1.6,3-2.9,4.2c-1.3,1.2-2.8,2.2-4.4,2.8c-1,0.4-1.9,0.6-2.7,0.8
			C170.8,152.1,169.2,152.1,167,152.1z M159.5,151.1h7.5c2.2,0,3.7-0.1,4.5-0.2c0.8-0.1,1.6-0.4,2.5-0.7c1.6-0.6,2.9-1.5,4.1-2.6
			c1.1-1.1,2-2.4,2.7-3.9c0.6-1.5,0.9-3,0.9-4.6c0-2.3-0.6-4.4-1.7-6.3c-1.1-1.9-2.7-3.4-4.6-4.3c-1.9-1-4.6-1.5-7.9-1.5h-8V151.1z
			 M167.2,148.9h-4.6c-0.3,0-0.5-0.2-0.5-0.5v-18.8c0-0.3,0.2-0.5,0.5-0.5h4.5c1.8,0,3,0.1,3.9,0.2c0.8,0.1,1.7,0.4,2.6,0.9
			c0.9,0.4,1.7,1,2.5,1.7c1.9,1.8,2.9,4.1,2.9,7c0,2.9-0.9,5.3-2.8,7.2c-0.6,0.6-1.2,1.1-1.9,1.5c-0.7,0.4-1.6,0.7-2.6,1
			C170.5,148.8,169.1,148.9,167.2,148.9z M163.1,147.9h4.1c1.8,0,3.1-0.1,4.1-0.4c1-0.2,1.7-0.5,2.4-0.9c0.6-0.4,1.2-0.8,1.7-1.3
			c1.7-1.7,2.5-3.9,2.5-6.5c0-2.6-0.8-4.6-2.6-6.3c-0.6-0.6-1.4-1.1-2.2-1.5c-0.8-0.4-1.6-0.6-2.4-0.8c-0.8-0.1-2-0.2-3.7-0.2h-4
			V147.9z"/>
	</g>
	<g>
		<path d="M192.2,126.5h14.3v3.2h-10.7v7.7h10.3v3.2h-10.3v7.8h11v3.2h-14.6V126.5z"/>
		<path d="M206.9,152.1h-14.6c-0.3,0-0.5-0.2-0.5-0.5v-25.2c0-0.3,0.2-0.5,0.5-0.5h14.3c0.3,0,0.5,0.2,0.5,0.5v3.2
			c0,0.3-0.2,0.5-0.5,0.5h-10.2v6.7h9.8c0.3,0,0.5,0.2,0.5,0.5v3.2c0,0.3-0.2,0.5-0.5,0.5h-9.8v6.8h10.5c0.3,0,0.5,0.2,0.5,0.5v3.2
			C207.4,151.9,207.1,152.1,206.9,152.1z M192.7,151.1h13.6v-2.2h-10.5c-0.3,0-0.5-0.2-0.5-0.5v-7.8c0-0.3,0.2-0.5,0.5-0.5h9.8v-2.2
			h-9.8c-0.3,0-0.5-0.2-0.5-0.5v-7.7c0-0.3,0.2-0.5,0.5-0.5H206V127h-13.3V151.1z"/>
	</g>
	<g>
		<path d="M222.5,141.1l-2.7-1.7c-1.7-1.1-2.9-2.1-3.7-3.1c-0.7-1-1.1-2.2-1.1-3.5c0-2,0.7-3.6,2.1-4.8c1.4-1.2,3.2-1.9,5.4-1.9
			c2.1,0,4,0.6,5.8,1.8v4.1c-1.8-1.7-3.8-2.6-5.9-2.6c-1.2,0-2.1,0.3-2.9,0.8c-0.8,0.5-1.1,1.2-1.1,2.1c0,0.8,0.3,1.5,0.8,2.1
			c0.6,0.7,1.5,1.4,2.7,2.1l2.8,1.6c3.1,1.8,4.6,4.2,4.6,7c0,2-0.7,3.7-2,4.9c-1.4,1.3-3.1,1.9-5.3,1.9c-2.5,0-4.8-0.8-6.8-2.3v-4.6
			c1.9,2.5,4.2,3.7,6.8,3.7c1.1,0,2.1-0.3,2.8-0.9c0.8-0.6,1.1-1.4,1.1-2.4C225.8,143.9,224.7,142.5,222.5,141.1z"/>
		<path d="M221.9,152.5c-2.6,0-5-0.8-7.1-2.4c-0.1-0.1-0.2-0.2-0.2-0.4v-4.6c0-0.2,0.1-0.4,0.3-0.5c0.2-0.1,0.4,0,0.6,0.2
			c1.9,2.4,4,3.5,6.4,3.5c1,0,1.8-0.3,2.5-0.8c0.6-0.5,0.9-1.2,0.9-2c0-1.3-1-2.7-3.1-3.9l-2.7-1.7c-1.8-1.1-3.1-2.2-3.8-3.2
			c-0.8-1.1-1.2-2.4-1.2-3.8c0-2.1,0.8-3.9,2.2-5.2c1.5-1.3,3.4-2,5.7-2c2.2,0,4.2,0.6,6.1,1.9c0.1,0.1,0.2,0.2,0.2,0.4v4.1
			c0,0.2-0.1,0.4-0.3,0.5c-0.2,0.1-0.4,0-0.5-0.1c-1.7-1.6-3.6-2.5-5.5-2.5c-1.1,0-1.9,0.2-2.6,0.7c-0.6,0.4-0.9,1-0.9,1.7
			c0,0.6,0.2,1.2,0.7,1.8c0.5,0.6,1.4,1.3,2.6,2l2.8,1.6c3.2,1.9,4.9,4.4,4.9,7.4c0,2.2-0.7,3.9-2.2,5.3
			C226.1,151.8,224.2,152.5,221.9,152.5z M215.6,149.4c1.9,1.4,4,2.1,6.3,2.1c2,0,3.7-0.6,4.9-1.8c1.3-1.2,1.9-2.7,1.9-4.6
			c0-2.7-1.4-4.8-4.4-6.6l-2.8-1.6c-1.3-0.8-2.2-1.5-2.8-2.2c-0.6-0.7-1-1.6-1-2.4c0-1,0.5-1.9,1.3-2.5c0.8-0.6,1.9-0.9,3.2-0.9
			c1.9,0,3.7,0.7,5.4,2v-2.7c-1.6-1-3.4-1.5-5.3-1.5c-2.1,0-3.8,0.6-5,1.7c-1.3,1.1-1.9,2.6-1.9,4.5c0,1.2,0.3,2.3,1,3.2
			c0.7,1,1.9,2,3.5,3l2.7,1.7c0,0,0,0,0,0c2.4,1.5,3.6,3.1,3.6,4.8c0,1.1-0.4,2-1.3,2.7c-0.8,0.7-1.9,1.1-3.1,1.1
			c-2.3,0-4.4-1-6.3-2.9V149.4z"/>
	</g>
	<g>
		<path d="M238.7,126.5h3.6v25.2h-3.6V126.5z"/>
		<path d="M242.4,152.2h-3.6c-0.3,0-0.5-0.2-0.5-0.5v-25.2c0-0.3,0.2-0.5,0.5-0.5h3.6c0.3,0,0.5,0.2,0.5,0.5v25.2
			C242.9,151.9,242.6,152.2,242.4,152.2z M239.2,151.2h2.6V127h-2.6V151.2z"/>
	</g>
	<g>
		<path d="M267.1,139.2h8.5v10.7c-3.1,1.3-6.2,2-9.2,2c-4.2,0-7.5-1.2-10-3.7c-2.5-2.4-3.7-5.4-3.7-9c0-3.8,1.3-6.9,3.9-9.4
			c2.6-2.5,5.8-3.8,9.7-3.8c1.4,0,2.8,0.2,4,0.5c1.3,0.3,2.9,0.9,4.8,1.7v3.7c-3-1.7-6-2.6-9-2.6c-2.8,0-5.1,0.9-7,2.8
			c-1.9,1.9-2.8,4.2-2.8,6.9c0,2.9,0.9,5.2,2.8,7c1.9,1.8,4.3,2.7,7.3,2.7c1.4,0,3.2-0.3,5.2-1l0.3-0.1v-5.3h-4.9V139.2z"/>
		<path d="M266.3,152.5c-4.3,0-7.8-1.3-10.4-3.8c-2.6-2.5-3.9-5.7-3.9-9.4c0-3.9,1.4-7.2,4-9.8c2.7-2.6,6.1-3.9,10.1-3.9
			c1.5,0,2.8,0.2,4.2,0.5c1.3,0.3,2.9,0.9,4.9,1.7c0.2,0.1,0.3,0.3,0.3,0.5v3.7c0,0.2-0.1,0.3-0.3,0.4c-0.2,0.1-0.3,0.1-0.5,0
			c-2.9-1.7-5.8-2.5-8.7-2.5c-2.6,0-4.8,0.9-6.6,2.7c-1.8,1.8-2.7,4-2.7,6.6c0,2.7,0.9,4.9,2.7,6.7c1.8,1.7,4.1,2.6,6.9,2.6
			c1.4,0,3.1-0.3,5-1V143h-4.4c-0.3,0-0.5-0.2-0.5-0.5v-3.2c0-0.3,0.2-0.5,0.5-0.5h8.5c0.3,0,0.5,0.2,0.5,0.5v10.7
			c0,0.2-0.1,0.4-0.3,0.5C272.6,151.8,269.5,152.5,266.3,152.5z M266.2,126.6c-3.7,0-6.9,1.2-9.4,3.6c-2.5,2.4-3.7,5.4-3.7,9
			c0,3.4,1.2,6.3,3.6,8.7c2.4,2.3,5.6,3.5,9.7,3.5c2.9,0,5.8-0.6,8.7-1.9v-9.9h-7.5v2.2h4.4c0.3,0,0.5,0.2,0.5,0.5v5.3
			c0,0.2-0.1,0.4-0.3,0.5l-0.3,0.1c-2,0.7-3.8,1-5.3,1c-3.1,0-5.7-1-7.6-2.9c-2-1.9-3-4.4-3-7.4c0-2.9,1-5.3,3-7.3c2-2,4.4-3,7.3-3
			c2.8,0,5.6,0.8,8.5,2.3v-2.5c-1.8-0.7-3.3-1.3-4.5-1.5C268.9,126.8,267.6,126.6,266.2,126.6z"/>
	</g>
	<g>
		<path d="M306.4,126.5h3.4v25.2h-3.1l-16.9-19.4v19.4h-3.4v-25.2h2.9l17,19.6V126.5z"/>
		<path d="M309.9,152.2h-3.1c-0.1,0-0.3-0.1-0.4-0.2l-16-18.4v18.1c0,0.3-0.2,0.5-0.5,0.5h-3.4c-0.3,0-0.5-0.2-0.5-0.5v-25.2
			c0-0.3,0.2-0.5,0.5-0.5h2.9c0.1,0,0.3,0.1,0.4,0.2l16.1,18.6v-18.2c0-0.3,0.2-0.5,0.5-0.5h3.4c0.3,0,0.5,0.2,0.5,0.5v25.2
			C310.4,151.9,310.1,152.2,309.9,152.2z M307,151.2h2.4V127h-2.4V146c0,0.2-0.1,0.4-0.3,0.5c-0.2,0.1-0.4,0-0.6-0.1L289.2,127H287
			v24.2h2.4v-18.9c0-0.2,0.1-0.4,0.3-0.5c0.2-0.1,0.4,0,0.6,0.1L307,151.2z"/>
	</g>
</g>
</svg>
