<svg id="圖層_1" data-name="圖層 1" xmlns="http://www.w3.org/2000/svg" viewBox="0 0 318.5 191.1"><defs><style>.cls-1{fill:#fff;}</style></defs><path class="cls-1" d="M74.1,100.9a1.46,1.46,0,0,0,1.3.7h78.9a1.56,1.56,0,0,0,1.3-.7l.8-1.2a1.6,1.6,0,0,0,.1-1.5L128.3,41.8a1.69,1.69,0,0,0-1.4-.9h-1.5a1.51,1.51,0,0,0-1.4.9L114.9,60l-9.1-18.2a1.69,1.69,0,0,0-1.4-.9h-1.5a1.51,1.51,0,0,0-1.4.9L73.2,98.1a1.58,1.58,0,0,0,.1,1.5Zm59.2-4.1L117.6,65.4l8.6-17.1,24.3,48.5Zm-54,0,24.3-48.5,24.3,48.5Z"/><path class="cls-1" d="M242.4,41.6a1.46,1.46,0,0,0-1.3-.7H162.2a1.71,1.71,0,0,0-1.3.7l-.8,1.2a1.6,1.6,0,0,0-.1,1.5l11.3,22.5a1.69,1.69,0,0,0,1.4.9h1.5a1.51,1.51,0,0,0,1.4-.9l2.5-5,21.4,38.9a1.6,1.6,0,0,0,1.4.8h1.5a1.6,1.6,0,0,0,1.4-.8l21.4-38.9,2.5,5a1.69,1.69,0,0,0,1.4.9h1.5a1.51,1.51,0,0,0,1.4-.9l11.3-22.5a1.58,1.58,0,0,0-.1-1.5Zm-61.6,4.1-7.4,14.7L166,45.7Zm36.2,0,5.5,10.9-20.9,38-20.9-38,5.5-10.9Zm20.2,0-7.4,14.7-7.4-14.7Z"/><path class="cls-1" d="M44.7,126.5h3.6L38.1,151.8h-.8l-8.2-20.5-8.3,20.5H20L9.8,126.5h3.6l6.9,17.4,7-17.4h3.4l7,17.4Z"/><path class="cls-1" d="M38.1,152.3h-.8a.55.55,0,0,1-.5-.3L29,132.6,21.2,152a.55.55,0,0,1-.5.3H20a.55.55,0,0,1-.5-.3L9.4,126.6c-.1-.2,0-.3,0-.5a.52.52,0,0,1,.4-.2h3.6a.55.55,0,0,1,.5.3l6.5,16.2,6.5-16.2a.55.55,0,0,1,.5-.3h3.4a.55.55,0,0,1,.5.3l6.6,16.2,6.4-16.2a.55.55,0,0,1,.5-.3h3.6a.52.52,0,0,1,.4.2.45.45,0,0,1,0,.5L38.6,152A.62.62,0,0,1,38.1,152.3Zm-.4-1h.1L47.6,127H45.1l-6.8,17a.46.46,0,0,1-.5.3.55.55,0,0,1-.5-.3l-6.8-17H27.8l-6.9,17a.55.55,0,0,1-.5.3h0a.55.55,0,0,1-.5-.3l-6.8-17H10.5l9.8,24.3h.1l8.2-20.2a.57.57,0,0,1,1,0Z"/><path class="cls-1" d="M67.6,126.1a13.35,13.35,0,0,1,9.7,3.7,12.38,12.38,0,0,1,3.9,9.3,12,12,0,0,1-3.9,9.2,14.1,14.1,0,0,1-9.9,3.7,12.89,12.89,0,0,1-9.5-3.7,13.16,13.16,0,0,1,0-18.5A13.35,13.35,0,0,1,67.6,126.1Zm.1,3.4a9.65,9.65,0,0,0-7.1,2.7,9.78,9.78,0,0,0,0,13.7,9.74,9.74,0,0,0,7,2.7,9.27,9.27,0,0,0,7-2.8,9,9,0,0,0,2.8-6.9,8.76,8.76,0,0,0-2.8-6.7A9.34,9.34,0,0,0,67.7,129.5Z"/><path class="cls-1" d="M67.4,152.5a13.67,13.67,0,0,1-9.8-3.8,13.64,13.64,0,0,1,.1-19.2,14,14,0,0,1,10-3.8,14.39,14.39,0,0,1,10.1,3.8,13.4,13.4,0,0,1-.1,19.2A14.89,14.89,0,0,1,67.4,152.5Zm.2-25.9a12.74,12.74,0,0,0-9.3,3.6,12.29,12.29,0,0,0-3.7,9,11.76,11.76,0,0,0,3.6,8.8,12.77,12.77,0,0,0,9.1,3.5,14,14,0,0,0,9.6-3.5,11.63,11.63,0,0,0,3.8-8.9,11.91,11.91,0,0,0-3.7-8.9A13.14,13.14,0,0,0,67.6,126.6Zm0,22.5a10.37,10.37,0,0,1-7.3-2.8,9.36,9.36,0,0,1-2.9-7.1,10,10,0,0,1,2.9-7.3,11,11,0,0,1,14.8.1,10,10,0,0,1,0,14.3A10.76,10.76,0,0,1,67.6,149.1Zm.1-19.1a9.61,9.61,0,0,0-6.8,2.6,9,9,0,0,0-2.6,6.6,8.67,8.67,0,0,0,2.6,6.4,9.8,9.8,0,0,0,13.3,0A9.15,9.15,0,0,0,67.7,130Z"/><path class="cls-1" d="M86.6,126.4h21.1v3.2H98.9v22H95.3v-22H86.7v-3.2Z"/><path class="cls-1" d="M98.9,152.2H95.3a.47.47,0,0,1-.5-.5V130.2H86.7a.47.47,0,0,1-.5-.5v-3.2a.47.47,0,0,1,.5-.5h21.1a.47.47,0,0,1,.5.5v3.2a.47.47,0,0,1-.5.5H99.5v21.5C99.4,151.9,99.2,152.2,98.9,152.2Zm-3.1-1h2.6V129.7a.47.47,0,0,1,.5-.5h8.3V127H87.1v2.2h8.1a.47.47,0,0,1,.5.5v21.5Z"/><path class="cls-1" d="M121,126.3h2.5l11.3,25.4h-3.7l-3.4-7.5H117l-3.2,7.5h-3.7Zm5.3,14.7-4.1-9.1-3.8,9.1Z"/><path class="cls-1" d="M134.8,152.2h-3.7a.55.55,0,0,1-.5-.3l-3.2-7.2H117.3l-3,7.2a.55.55,0,0,1-.5.3h-3.7a.52.52,0,0,1-.4-.2.45.45,0,0,1,0-.5l10.8-25.4a.55.55,0,0,1,.5-.3h2.5a.55.55,0,0,1,.5.3l11.3,25.4a.45.45,0,0,1,0,.5A.76.76,0,0,1,134.8,152.2Zm-3.3-1h2.6l-10.9-24.4h-1.9l-10.4,24.4h2.6l3-7.2a.55.55,0,0,1,.5-.3h10.8a.55.55,0,0,1,.5.3Zm-5.2-9.7h-7.8a.52.52,0,0,1-.4-.2.45.45,0,0,1,0-.5l3.8-9.1a.57.57,0,0,1,1,0l4.1,9.1a.45.45,0,0,1,0,.5A4.08,4.08,0,0,1,126.3,141.5Zm-7.1-1h6.3l-3.3-7.4Z"/><path class="cls-1" d="M159,151.6V126.4h8.5a18.29,18.29,0,0,1,8.1,1.5,11.54,11.54,0,0,1,4.8,4.5,12.49,12.49,0,0,1,1.8,6.5,11.17,11.17,0,0,1-1,4.8,12.48,12.48,0,0,1-2.8,4.1,12.06,12.06,0,0,1-4.3,2.7,10.15,10.15,0,0,1-2.6.7,39.52,39.52,0,0,1-4.5.2h-8Zm8.1-21.9h-4.5v18.8h4.6a15.62,15.62,0,0,0,4.2-.4,12,12,0,0,0,2.5-.9,6.23,6.23,0,0,0,1.8-1.4,9.27,9.27,0,0,0,2.7-6.8,8.67,8.67,0,0,0-2.7-6.6,9.45,9.45,0,0,0-2.3-1.6,9,9,0,0,0-2.5-.8A12.78,12.78,0,0,0,167.1,129.7Z"/><path class="cls-1" d="M167,152.1h-8a.47.47,0,0,1-.5-.5V126.4a.47.47,0,0,1,.5-.5h8.5a18.22,18.22,0,0,1,8.4,1.6,12.63,12.63,0,0,1,6.8,11.5,12.41,12.41,0,0,1-1,5,12.18,12.18,0,0,1-2.9,4.2,13.71,13.71,0,0,1-4.4,2.8,19.53,19.53,0,0,1-2.7.8A18.62,18.62,0,0,1,167,152.1Zm-7.5-1H167a39.52,39.52,0,0,0,4.5-.2,13.57,13.57,0,0,0,2.5-.7,12.46,12.46,0,0,0,4.1-2.6,13.58,13.58,0,0,0,2.7-3.9,12.16,12.16,0,0,0,.9-4.6,12.39,12.39,0,0,0-1.7-6.3,10.59,10.59,0,0,0-4.6-4.3,17.36,17.36,0,0,0-7.9-1.5h-8Zm7.7-2.2h-4.6a.47.47,0,0,1-.5-.5V129.6a.47.47,0,0,1,.5-.5h4.5a33.83,33.83,0,0,1,3.9.2,7.35,7.35,0,0,1,2.6.9,10.06,10.06,0,0,1,2.5,1.7,9.19,9.19,0,0,1,2.9,7,9.72,9.72,0,0,1-2.8,7.2,9,9,0,0,1-1.9,1.5,12.85,12.85,0,0,1-2.6,1A27.24,27.24,0,0,1,167.2,148.9Zm-4.1-1h4.1a14.81,14.81,0,0,0,4.1-.4,7.51,7.51,0,0,0,2.4-.9,10.92,10.92,0,0,0,1.7-1.3,8.82,8.82,0,0,0,2.5-6.5,8.09,8.09,0,0,0-2.6-6.3,8.55,8.55,0,0,0-2.2-1.5,11.28,11.28,0,0,0-2.4-.8,29.86,29.86,0,0,0-3.7-.2h-4v17.9Z"/><path class="cls-1" d="M192.2,126.5h14.3v3.2H195.8v7.7h10.3v3.2H195.8v7.8h11v3.2H192.2Z"/><path class="cls-1" d="M206.9,152.1H192.3a.47.47,0,0,1-.5-.5V126.4a.47.47,0,0,1,.5-.5h14.3a.47.47,0,0,1,.5.5v3.2a.47.47,0,0,1-.5.5H196.4v6.7h9.8a.47.47,0,0,1,.5.5v3.2a.47.47,0,0,1-.5.5h-9.8v6.8h10.5a.47.47,0,0,1,.5.5v3.2A.56.56,0,0,1,206.9,152.1Zm-14.2-1h13.6v-2.2H195.8a.47.47,0,0,1-.5-.5v-7.8a.47.47,0,0,1,.5-.5h9.8v-2.2h-9.8a.47.47,0,0,1-.5-.5v-7.7a.47.47,0,0,1,.5-.5H206V127H192.7Z"/><path class="cls-1" d="M222.5,141.1l-2.7-1.7a15.38,15.38,0,0,1-3.7-3.1,6.36,6.36,0,0,1,1-8.3,8.06,8.06,0,0,1,5.4-1.9,10.19,10.19,0,0,1,5.8,1.8V132a8.56,8.56,0,0,0-5.9-2.6,5.22,5.22,0,0,0-2.9.8,2.26,2.26,0,0,0-1.1,2.1,3.23,3.23,0,0,0,.8,2.1,10.54,10.54,0,0,0,2.7,2.1l2.8,1.6c3.1,1.8,4.6,4.2,4.6,7a6.48,6.48,0,0,1-2,4.9,7.34,7.34,0,0,1-5.3,1.9,11.16,11.16,0,0,1-6.8-2.3V145a8.35,8.35,0,0,0,6.8,3.7,4.28,4.28,0,0,0,2.8-.9,2.77,2.77,0,0,0,1.1-2.4C225.8,143.9,224.7,142.5,222.5,141.1Z"/><path class="cls-1" d="M221.9,152.5a11.49,11.49,0,0,1-7.1-2.4.52.52,0,0,1-.2-.4v-4.6a.55.55,0,0,1,.3-.5c.2-.1.4,0,.6.2,1.9,2.4,4,3.5,6.4,3.5a4.15,4.15,0,0,0,2.5-.8,2.52,2.52,0,0,0,.9-2c0-1.3-1-2.7-3.1-3.9l-2.7-1.7a12.9,12.9,0,0,1-3.8-3.2,6.36,6.36,0,0,1-1.2-3.8,6.93,6.93,0,0,1,2.2-5.2,8.42,8.42,0,0,1,5.7-2,10.48,10.48,0,0,1,6.1,1.9.52.52,0,0,1,.2.4v4.1a.55.55,0,0,1-.3.5.44.44,0,0,1-.5-.1,8.17,8.17,0,0,0-5.5-2.5,4.21,4.21,0,0,0-2.6.7,2,2,0,0,0-.9,1.7,2.74,2.74,0,0,0,.7,1.8,10.18,10.18,0,0,0,2.6,2l2.8,1.6c3.2,1.9,4.9,4.4,4.9,7.4a6.8,6.8,0,0,1-2.2,5.3A8.88,8.88,0,0,1,221.9,152.5Zm-6.3-3.1a10.38,10.38,0,0,0,6.3,2.1,6.73,6.73,0,0,0,4.9-1.8,5.89,5.89,0,0,0,1.9-4.6c0-2.7-1.4-4.8-4.4-6.6l-2.8-1.6a11.81,11.81,0,0,1-2.8-2.2,3.91,3.91,0,0,1-1-2.4,3.13,3.13,0,0,1,1.3-2.5,5.27,5.27,0,0,1,3.2-.9,8.81,8.81,0,0,1,5.4,2v-2.7a9.88,9.88,0,0,0-5.3-1.5,7.2,7.2,0,0,0-5,1.7,5.55,5.55,0,0,0-1.9,4.5,5.09,5.09,0,0,0,1,3.2,12.06,12.06,0,0,0,3.5,3l2.7,1.7h0q3.6,2.25,3.6,4.8a3.23,3.23,0,0,1-1.3,2.7,4.69,4.69,0,0,1-3.1,1.1,8.81,8.81,0,0,1-6.3-2.9v2.9Z"/><path class="cls-1" d="M238.7,126.5h3.6v25.2h-3.6Z"/><path class="cls-1" d="M242.4,152.2h-3.6a.47.47,0,0,1-.5-.5V126.5a.47.47,0,0,1,.5-.5h3.6a.47.47,0,0,1,.5.5v25.2A.64.64,0,0,1,242.4,152.2Zm-3.2-1h2.6V127h-2.6Z"/><path class="cls-1" d="M267.1,139.2h8.5v10.7a23.87,23.87,0,0,1-9.2,2c-4.2,0-7.5-1.2-10-3.7a11.92,11.92,0,0,1-3.7-9,12.45,12.45,0,0,1,3.9-9.4,13.43,13.43,0,0,1,9.7-3.8,16.84,16.84,0,0,1,4,.5,31.57,31.57,0,0,1,4.8,1.7v3.7a18.19,18.19,0,0,0-9-2.6,9.57,9.57,0,0,0-9.8,9.7,9.12,9.12,0,0,0,2.8,7,10.13,10.13,0,0,0,7.3,2.7,16.22,16.22,0,0,0,5.2-1l.3-.1v-5.3H267v-3.1Z"/><path class="cls-1" d="M266.3,152.5a14.46,14.46,0,0,1-10.4-3.8,12.6,12.6,0,0,1-3.9-9.4,13.43,13.43,0,0,1,4-9.8,14,14,0,0,1,10.1-3.9,19.31,19.31,0,0,1,4.2.5,36.43,36.43,0,0,1,4.9,1.7.55.55,0,0,1,.3.5V132c0,.2-.1.3-.3.4a.45.45,0,0,1-.5,0,17,17,0,0,0-8.7-2.5,9.4,9.4,0,0,0-6.6,16,9.68,9.68,0,0,0,6.9,2.6,14.72,14.72,0,0,0,5-1V143h-4.4a.47.47,0,0,1-.5-.5v-3.2a.47.47,0,0,1,.5-.5h8.5a.47.47,0,0,1,.5.5V150a.55.55,0,0,1-.3.5A23.22,23.22,0,0,1,266.3,152.5Zm-.1-25.9a13.14,13.14,0,0,0-9.4,3.6,12.55,12.55,0,0,0-.1,17.7,13.41,13.41,0,0,0,9.7,3.5,21,21,0,0,0,8.7-1.9v-9.9h-7.5v2.2H272a.47.47,0,0,1,.5.5v5.3a.55.55,0,0,1-.3.5l-.3.1a16.28,16.28,0,0,1-5.3,1,10.41,10.41,0,0,1-7.6-2.9,10.35,10.35,0,0,1,7.3-17.7,18.41,18.41,0,0,1,8.5,2.3v-2.5a26.06,26.06,0,0,0-4.5-1.5C268.9,126.8,267.6,126.6,266.2,126.6Z"/><path class="cls-1" d="M306.4,126.5h3.4v25.2h-3.1l-16.9-19.4v19.4h-3.4V126.5h2.9l17,19.6V126.5Z"/><path class="cls-1" d="M309.9,152.2h-3.1a.76.76,0,0,1-.4-.2l-16-18.4v18.1a.47.47,0,0,1-.5.5h-3.4a.47.47,0,0,1-.5-.5V126.5a.47.47,0,0,1,.5-.5h2.9a.76.76,0,0,1,.4.2l16.1,18.6V126.6a.47.47,0,0,1,.5-.5h3.4a.47.47,0,0,1,.5.5v25.2C310.4,151.9,310.1,152.2,309.9,152.2Zm-2.9-1h2.4V127H307v19a.55.55,0,0,1-.3.5.66.66,0,0,1-.6-.1L289.2,127H287v24.2h2.4V132.3a.55.55,0,0,1,.3-.5.66.66,0,0,1,.6.1Z"/></svg>